# xmcd
# 
# Track frame offsets:
#     150
#     3755
#     20805
#     35302
#     50875
#     55612
#     72225
#     87967
#     107867
#     125875
#     141952
#     166909
#     187525
#     218150
#     239245
#     260780
# 
# Disc length: 3600
# 
# Revision: 5
# Processed by: cddbd v1.5.2PL0 Copyright (c) Steve Scherf et al.
# Submitted via: fre:ac v1.0.27
# 
DISCID=e90e0e10
DTITLE=Giant Sand - Chore of Enchantment
DYEAR=2000
DGENRE=Country
TTITLE0=Overture
TTITLE1=(well) Dusted (for the millenium)
TTITLE2=Punishing Sun
TTITLE3=X-tra Wide
TTITLE4=1972
TTITLE5=Temptation of Egg
TTITLE6=Raw
TTITLE7=Wolfy
TTITLE8=Shiver
TTITLE9=Dirty From the Rain
TTITLE10=Astonished (in Memphis)
TTITLE11=No Reply
TTITLE12=Satellite
TTITLE13=Bottom Line Man
TTITLE14=Way to End the Day
TTITLE15=Shrine
EXTD=
EXTT0=
EXTT1=
EXTT2=
EXTT3=
EXTT4=
EXTT5=
EXTT6=
EXTT7=
EXTT8=
EXTT9=
EXTT10=
EXTT11=
EXTT12=
EXTT13=
EXTT14=
EXTT15=
PLAYORDER=
